<svg version="1.2" xmlns="http://www.w3.org/2000/svg" viewBox="0 0 86 74" width="86" height="74">
	<title>noun-book-6676648-svg</title>
	<style>
		.s0 { fill: #6e6e6e } 
	</style>
	<path id="Layer" fill-rule="evenodd" class="s0" d="m85.6 16.1v51.4c0 3.4-2.8 6.2-6.2 6.2h-72.8c-3.4 0-6.2-2.8-6.2-6.2v-51.4c0-3.4 2.8-6.2 6.2-6.2h6.2v-4.4c0-2.7 2.1-5 4.9-5.2 10-0.7 19.6 3.9 25.3 12.1 5.7-8.2 15.3-12.8 25.3-12.1 2.8 0.2 4.9 2.5 4.9 5.2v4.4h6.2c3.4 0 6.2 2.8 6.2 6.2zm-30.9-8.7c-4.1 2.2-7.5 5.6-9.7 9.7q0.1 0.3 0.1 0.6v47.4c5.7-6.6 14.2-10.1 22.9-9.5 0.3 0.1 0.6 0 0.8-0.2q0.3-0.4 0.3-0.8v-49.1c0-0.3-0.1-0.5-0.3-0.7q-0.3-0.3-0.7-0.3c-4.7-0.4-9.3 0.7-13.4 2.9zm-37.7 47.2c0 0.3 0.1 0.5 0.3 0.7 0.2 0.2 0.5 0.3 0.8 0.3h1.7c8.1-0.1 15.8 3.4 21.1 9.5v-47.4q0-0.3 0.1-0.7c-2.2-4.1-5.5-7.4-9.6-9.6-4.1-2.3-8.8-3.3-13.4-2.9-0.6 0-1 0.5-1 1zm-11.8 14.4c0.4 0.4 0.9 0.7 1.5 0.7h32.6c-4.8-6.7-12.7-10.4-20.9-9.8-1.5 0.1-2.9-0.4-3.9-1.4-1.1-1-1.7-2.4-1.7-3.8v-40.6h-6.1c-1.2 0-2.1 0.9-2.1 2.1v51.3c0 0.6 0.2 1.1 0.6 1.5zm76.3-52.9c0-0.5-0.2-1.1-0.6-1.4-0.4-0.4-0.9-0.7-1.5-0.7h-6.1v40.7c0 1.4-0.6 2.7-1.7 3.7-1 1-2.4 1.5-3.8 1.4-8.2-0.5-16.2 3.2-21 9.8h32.6c0.6 0 1.1-0.2 1.5-0.6 0.4-0.4 0.6-0.9 0.6-1.5z"/>
</svg>