<svg version="1.2" xmlns="http://www.w3.org/2000/svg" viewBox="0 0 72 84" width="72" height="84">
	<title>noun-fleur-de-lis-3662488-svg</title>
	<style>
		.s0 { fill: #000000 } 
	</style>
	<filter id="f0">
		<feFlood flood-color="#6e6e6e" flood-opacity="1" />
		<feBlend mode="normal" in2="SourceGraphic"/>
		<feComposite in2="SourceAlpha" operator="in" />
	</filter>
	<g id="Layer" filter="url(#f0)">
		<g id="Layer">
			<path id="Layer" fill-rule="evenodd" class="s0" d="m9.3 40.4c4.2-11.5 15.5-3.5 18.8 7.4h4.3c-1-20.2-18.4-27.5-26.9-21.8-7.8 5.3-6.7 21.9 2.3 23.9 4.4 1 7.1-3.1 5.3-7.9-1.4 7.3-5.8 3.7-3.8-1.6z"/>
			<path id="Layer" fill-rule="evenodd" class="s0" d="m27.6 59.1c-3 4.8-10 5.4-13.4 4.5 3.5 6.7 13.8 9.8 17.2-4.5z"/>
			<path id="Layer" fill-rule="evenodd" class="s0" d="m33 59.1c-1.3 6.7-3.3 12.7-5 15.7 1.9 3.5 4.6 6.3 7.9 8.6 3.2-2.3 5.9-5.1 7.8-8.6-1.6-3-3.7-9-5-15.7z"/>
			<path id="Layer" fill-rule="evenodd" class="s0" d="m33.3 37.1c0.9 3.2 1.1 6.9 1 10.7h3.1c-0.1-3.8 0.2-7.5 1.1-10.7 2.8-10.2 10.4-10.9 10.1-16-0.3-7-5.8-11.4-12.7-20.4-7 9-12.4 13.4-12.7 20.4-0.3 5.1 7.3 5.8 10.1 16z"/>
			<path id="Layer" fill-rule="evenodd" class="s0" d="m66.3 26c-8.6-5.8-25.9 1.6-26.9 21.8h4.2c3.3-10.9 14.7-18.9 18.9-7.4 1.9 5.3-2.4 8.9-3.9 1.6-1.8 4.8 1 8.9 5.4 7.9 9-2 10-18.6 2.3-23.9z"/>
			<path id="Layer" fill-rule="evenodd" class="s0" d="m44.2 59.1h-3.8c3.4 14.3 13.7 11.2 17.2 4.5-3.4 0.9-10.4 0.3-13.4-4.5z"/>
			<path id="Layer" class="s0" d="m26 50.1h19.7v2.5h-19.7z"/>
			<path id="Layer" class="s0" d="m26 54.3h19.7v2.5h-19.7z"/>
		</g>
	</g>
</svg>