<svg version="1.2" xmlns="http://www.w3.org/2000/svg" viewBox="0 0 74 74" width="74" height="74">
	<title>noun-math-1093512-svg</title>
	<style>
		.s0 { fill: #000000 } 
	</style>
	<filter id="f0">
		<feFlood flood-color="#6e6e6e" flood-opacity="1" />
		<feBlend mode="normal" in2="SourceGraphic"/>
		<feComposite in2="SourceAlpha" operator="in" />
	</filter>
	<g id="Layer" filter="url(#f0)">
		<path id="Layer" fill-rule="evenodd" class="s0" d="m74 61c0 7.2-5.8 13-13 13h-48c-7.2 0-13-5.8-13-13v-48c0-7.2 5.8-13 13-13h48c7.2 0 13 5.8 13 13zm-13-59h-23v34h34v-23c0-6.1-4.9-11-11-11zm-59 11v23h34v-34h-23c-6.1 0-11 4.9-11 11zm11 59h23v-34h-34v23c0 6.1 4.9 11 11 11zm59-11v-23h-34v34h23c6.1 0 11-4.9 11-11z"/>
		<path id="Layer" class="s0" d="m27.4 52h-7.7v-7.6h-2v7.6h-7.6v2h7.6v7.7h2v-7.7h7.7z"/>
		<path id="Layer" class="s0" d="m10.1 18.7h17.3v2h-17.3z"/>
		<path id="Layer" class="s0" d="m45.7 58h17.3v2h-17.3z"/>
		<path id="Layer" class="s0" d="m45.7 49h17.3v2h-17.3z"/>
		<path id="Layer" class="s0" d="m47.5 25.1l1.4 1.4 5.5-5.4 5.4 5.4 1.4-1.4-5.4-5.4 5.4-5.5-1.4-1.4-5.4 5.5-5.5-5.5-1.4 1.4 5.4 5.5z"/>
	</g>
</svg>