<svg version="1.2" xmlns="http://www.w3.org/2000/svg" viewBox="0 0 304 494" width="304" height="494">
	<title>noun-beaker-1944677-svg</title>
	<style>
		.s0 { fill: #000000 } 
	</style>
	<filter id="f0">
		<feFlood flood-color="#6e6e6e" flood-opacity="1" />
		<feBlend mode="normal" in2="SourceGraphic"/>
		<feComposite in2="SourceAlpha" operator="in" />
	</filter>
	<g id="Layer" filter="url(#f0)">
		<path id="Layer" fill-rule="evenodd" class="s0" d="m297.6 419.9c8.5 15.6 8.2 34.2-0.9 49.5-9.1 15.3-25.2 24.6-43 24.6h-203.3c-17.8 0-33.9-9.3-43-24.6-9.1-15.3-9.4-34-0.9-49.6l78.8-144.5c2.4-4.4 3.7-9.4 3.7-14.4v-104.9h-15.4c-5.5 0-10-4.5-10-10 0-5.5 4.5-10 10-10h156.8c5.5 0 10 4.5 10 10 0 5.5-4.5 10-10 10h-15.4v104.9c0 5 1.3 10 3.7 14.4zm-215.5-97.5c8.7 2.3 14.7 6.3 19.9 9.7 7.1 4.7 12.7 8.4 24.9 8.4 12.2 0 17.8-3.7 24.9-8.4 7.9-5.1 17.7-11.6 35.9-11.6 18.2 0 28 6.4 35.9 11.6 1.8 1.2 3.5 2.3 5.2 3.3l-27.6-50.6c-4-7.3-6.2-15.6-6.2-23.9v-104.9h-86v105c0 8.3-2.2 16.6-6.2 23.9zm198.1 107l-37.7-69.2c-14.3-1.3-22.8-6.8-29.7-11.4-7.1-4.6-12.7-8.3-24.9-8.3-12.2 0-17.8 3.7-24.9 8.4-7.9 5.2-17.7 11.7-35.9 11.7-18.2 0-28-6.4-35.9-11.6-5.8-3.8-10.6-7-18.9-8l-48.2 88.5c-5.2 9.3-5 20.5 0.5 29.7 5.5 9.2 15.1 14.8 25.8 14.8h203.2c10.7 0 20.3-5.6 25.8-14.8 5.5-9.2 5.7-20.4 0.8-29.8z"/>
		<path id="Layer" fill-rule="evenodd" class="s0" d="m187.1 65.9c18 0 32.7 14.7 32.7 32.7 0 18-14.7 32.7-32.7 32.7-18 0-32.7-14.6-32.7-32.7 0-18.1 14.7-32.7 32.7-32.7zm-12.7 32.6c0 7 5.7 12.7 12.7 12.7 7 0 12.7-5.7 12.7-12.7 0-7-5.7-12.7-12.7-12.7-7 0-12.7 5.7-12.7 12.7z"/>
		<path id="Layer" fill-rule="evenodd" class="s0" d="m73.5 87.5c0-16.1 13.1-29.2 29.2-29.2 16.1 0 29.2 13.1 29.2 29.2 0 16.1-13.1 29.2-29.2 29.2-16.1 0-29.2-13.1-29.2-29.2zm20 0c0 5.1 4.1 9.2 9.2 9.2 5.1 0 9.2-4.1 9.2-9.2 0-5.1-4.1-9.2-9.2-9.2-5.1 0-9.3 4.1-9.2 9.2z"/>
		<path id="Layer" fill-rule="evenodd" class="s0" d="m126.2 28c0-15.3 12.3-27.7 27.6-27.7 15.3 0 27.7 12.4 27.7 27.7 0 15.3-12.4 27.7-27.7 27.7-15.2 0-27.6-12.4-27.6-27.7zm19.9 0c0 4.3 3.4 7.7 7.7 7.7 4.3 0 7.7-3.4 7.7-7.7 0-4.3-3.5-7.7-7.7-7.7-4.2 0-7.7 3.4-7.7 7.7z"/>
	</g>
</svg>